<?xml version="1.0" encoding="UTF-8" standalone="no"?>
<!-- Generator: Adobe Illustrator 19.0.0, SVG Export Plug-In . SVG Version: 6.00 Build 0)  -->

<svg
   xmlns:dc="http://purl.org/dc/elements/1.1/"
   xmlns:cc="http://creativecommons.org/ns#"
   xmlns:rdf="http://www.w3.org/1999/02/22-rdf-syntax-ns#"
   xmlns:svg="http://www.w3.org/2000/svg"
   xmlns="http://www.w3.org/2000/svg"
   xmlns:sodipodi="http://sodipodi.sourceforge.net/DTD/sodipodi-0.dtd"
   xmlns:inkscape="http://www.inkscape.org/namespaces/inkscape"
   version="1.1"
   id="Layer_1"
   x="0px"
   y="0px"
   viewBox="0 0 375.468 375.468"
   style="enable-background:new 0 0 375.468 375.468;"
   xml:space="preserve"
   width="512px"
   height="512px"
   sodipodi:docname="pressure.svg"
   inkscape:version="0.92.2 2405546, 2018-03-11"
   inkscape:export-filename="/home/daiwz/.conky/Myconky/assets/bg_img/pressure.svg.png"
   inkscape:export-xdpi="96"
   inkscape:export-ydpi="96"><metadata
   id="metadata67"><rdf:RDF><cc:Work
       rdf:about=""><dc:format>image/svg+xml</dc:format><dc:type
         rdf:resource="http://purl.org/dc/dcmitype/StillImage" /><dc:title></dc:title></cc:Work></rdf:RDF></metadata><defs
   id="defs65" /><sodipodi:namedview
   pagecolor="#ffffff"
   bordercolor="#666666"
   borderopacity="1"
   objecttolerance="10"
   gridtolerance="10"
   guidetolerance="10"
   inkscape:pageopacity="0"
   inkscape:pageshadow="2"
   inkscape:window-width="947"
   inkscape:window-height="1010"
   id="namedview63"
   showgrid="false"
   inkscape:zoom="0.65186406"
   inkscape:cx="253.37772"
   inkscape:cy="309.5736"
   inkscape:window-x="965"
   inkscape:window-y="34"
   inkscape:window-maximized="0"
   inkscape:current-layer="Layer_1" />





<g
   id="g32">
</g>
<g
   id="g34">
</g>
<g
   id="g36">
</g>
<g
   id="g38">
</g>
<g
   id="g40">
</g>
<g
   id="g42">
</g>
<g
   id="g44">
</g>
<g
   id="g46">
</g>
<g
   id="g48">
</g>
<g
   id="g50">
</g>
<g
   id="g52">
</g>
<g
   id="g54">
</g>
<g
   id="g56">
</g>
<g
   id="g58">
</g>
<g
   id="g60">
</g>
<g
   transform="matrix(0.82779526,0,0,0.82779526,-50.441705,-11.231515)"
   id="g3499"
   style="fill:#dddddd;fill-opacity:0.99425286;fill-rule:nonzero;stroke:#dddddd;stroke-width:13.51067257;stroke-linecap:round;stroke-linejoin:round;stroke-miterlimit:4;stroke-dasharray:none;stroke-opacity:1;paint-order:markers stroke fill"><path
     inkscape:connector-curvature="0"
     d="m 314.2583,323.64893 c 0,-14.45313 -11.7168,-26.16993 -26.16992,-26.16993 -14.45313,0 -26.16992,11.7168 -26.16992,26.16993 0,14.45312 11.71679,26.16992 26.16992,26.16992 14.45312,0 26.16992,-11.7168 26.16992,-26.16992 z"
     id="path3501"
     style="fill:#dddddd;fill-opacity:0.99425286;stroke:#dddddd;stroke-width:13.51067257;stroke-miterlimit:4;stroke-dasharray:none;stroke-opacity:1;paint-order:markers stroke fill" /><path
     inkscape:connector-curvature="0"
     d="m 261.91846,100.74365 v 135.07031 c 0,14.45411 11.71679,26.16993 26.16992,26.16993 14.45312,0 26.16992,-11.71582 26.16992,-26.16993 V 100.74365 c 0,-14.453123 -11.7168,-26.16992 -26.16992,-26.16992 -14.45313,0 -26.16992,11.716797 -26.16992,26.16992 z"
     id="path3503"
     style="fill:#dddddd;fill-opacity:0.99425286;stroke:#dddddd;stroke-width:13.51067257;stroke-miterlimit:4;stroke-dasharray:none;stroke-opacity:1;paint-order:markers stroke fill" /><path
     inkscape:connector-curvature="0"
     d="m 406.63623,379.87451 c 57.71973,-48.15039 80.58105,-126.43066 57.84766,-198.07715 -1.78614,-5.63134 -4.48633,-10.93164 -7.99122,-15.68847 L 411.48291,105.01904 C 404.65088,95.745605 400.96533,84.529297 400.96533,73.010742 V 56.651855 c 0,-3.973633 3.2207,-7.194824 7.19531,-7.194824 h 27.42481 c 4.65723,0 8.54394,3.554199 8.95898,8.192383 l 3.13574,35.062012 c 0.89942,10.049804 4.59864,19.645504 10.67579,27.698734 23.3916,30.99365 37.8789,67.7832 41.90234,106.40381 2.59961,50.35449 -12.79492,99.99121 -43.43066,140.03808 l -16.80469,54.0625 c -0.5586,1.79785 -2.17871,3.05762 -4.0586,3.15625 l -39.87793,2.08985 v -22.20899 h -30.85644 v 22.20898 h -30.85644 v -22.20898 h -30.85645 v 22.20898 h -30.85693 v -22.20898 h -30.85645 v 22.20898 h -30.85644 v -22.20898 h -30.85645 v 22.20898 l -39.87793,-2.08984 c -1.88037,-0.0986 -3.50049,-1.3584 -4.05908,-3.15625 l -16.80469,-54.0625 C 88.713378,326.80517 73.319335,277.16846 75.918944,226.81396 c 4.022949,-38.6206 18.510742,-75.41015 41.901856,-106.40381 6.07764,-8.05322 9.77637,-17.64892 10.67529,-27.698725 l 3.13672,-35.062012 c 0.41504,-4.638184 4.30176,-8.192383 8.9585,-8.192383 h 27.42529 c 3.97412,0 7.19531,3.221191 7.19531,7.194824 v 16.358887 c 0,11.518555 -3.68554,22.734863 -10.51855,32.008299 l -45.00928,61.08985 c -3.50439,4.75683 -6.20459,10.05712 -7.99121,15.68847 -22.733398,71.64649 0.12793,149.92676 57.84766,198.07715 z"
     id="path3505"
     style="fill:#dddddd;fill-opacity:0.99425286;stroke:#dddddd;stroke-width:13.51067257;stroke-linecap:butt;stroke-linejoin:miter;stroke-miterlimit:4;stroke-dasharray:none;stroke-opacity:1;paint-order:markers stroke fill" /></g></svg>