<?xml version="1.0" encoding="UTF-8" standalone="no"?>
<!-- Generator: Adobe Illustrator 19.0.0, SVG Export Plug-In . SVG Version: 6.00 Build 0)  -->

<svg
   xmlns:dc="http://purl.org/dc/elements/1.1/"
   xmlns:cc="http://creativecommons.org/ns#"
   xmlns:rdf="http://www.w3.org/1999/02/22-rdf-syntax-ns#"
   xmlns:svg="http://www.w3.org/2000/svg"
   xmlns="http://www.w3.org/2000/svg"
   xmlns:sodipodi="http://sodipodi.sourceforge.net/DTD/sodipodi-0.dtd"
   xmlns:inkscape="http://www.inkscape.org/namespaces/inkscape"
   version="1.1"
   id="Layer_1"
   x="0px"
   y="0px"
   viewBox="0 0 512 512"
   style="enable-background:new 0 0 512 512;"
   xml:space="preserve"
   width="512px"
   height="512px"
   sodipodi:docname="wind.svg"
   inkscape:version="0.92.2 2405546, 2018-03-11"
   inkscape:export-filename="/home/daiwz/.conky/Myconky/assets/bg_img/wind.svg.png"
   inkscape:export-xdpi="96"
   inkscape:export-ydpi="96"><metadata
   id="metadata55"><rdf:RDF><cc:Work
       rdf:about=""><dc:format>image/svg+xml</dc:format><dc:type
         rdf:resource="http://purl.org/dc/dcmitype/StillImage" /></cc:Work></rdf:RDF></metadata><defs
   id="defs53" /><sodipodi:namedview
   pagecolor="#ffffff"
   bordercolor="#666666"
   borderopacity="1"
   objecttolerance="10"
   gridtolerance="10"
   guidetolerance="10"
   inkscape:pageopacity="0"
   inkscape:pageshadow="2"
   inkscape:window-width="947"
   inkscape:window-height="1010"
   id="namedview51"
   showgrid="false"
   inkscape:zoom="0.65186406"
   inkscape:cx="279.13937"
   inkscape:cy="181.98825"
   inkscape:window-x="965"
   inkscape:window-y="34"
   inkscape:window-maximized="0"
   inkscape:current-layer="Layer_1" />

















<g
   id="g952"
   transform="matrix(0.92353714,0,0,0.92353714,19.281249,20.38805)"><g
     style="fill:#dddddd;fill-opacity:1;stroke:#dddddd;stroke-width:18.79999924;stroke-miterlimit:4;stroke-dasharray:none;stroke-opacity:1"
     id="g6">
	<g
   style="fill:#dddddd;fill-opacity:1;stroke:#dddddd;stroke-width:18.79999924;stroke-miterlimit:4;stroke-dasharray:none;stroke-opacity:1"
   id="g4">
		<path
   style="fill:#dddddd;fill-opacity:1;stroke:#dddddd;stroke-width:18.79999924;stroke-miterlimit:4;stroke-dasharray:none;stroke-opacity:1"
   id="path2"
   d="M 288.886,306.238 H 82.659 v 30 h 206.227 c 23.035,0 41.775,18.74 41.775,41.775 0,20.511 -16.687,37.199 -37.199,37.199 -18.193,0 -32.993,-14.8 -32.993,-32.992 h -30 c 0,34.734 28.259,62.992 62.993,62.992 37.054,0 67.199,-30.146 67.199,-67.199 0,-39.577 -32.198,-71.775 -71.775,-71.775 z"
   inkscape:connector-curvature="0" />
	</g>
</g><g
     style="fill:#dddddd;fill-opacity:1;stroke:#dddddd;stroke-width:18.79999924;stroke-miterlimit:4;stroke-dasharray:none;stroke-opacity:1"
     id="g12">
	<g
   style="fill:#dddddd;fill-opacity:1;stroke:#dddddd;stroke-width:18.79999924;stroke-miterlimit:4;stroke-dasharray:none;stroke-opacity:1"
   id="g10">
		<path
   style="fill:#dddddd;fill-opacity:1;stroke:#dddddd;stroke-width:18.79999924;stroke-miterlimit:4;stroke-dasharray:none;stroke-opacity:1"
   id="path8"
   d="m 410.329,66.788 c -52.21,0 -94.686,42.476 -94.686,94.686 h 30 c 0,-35.668 29.018,-64.686 64.686,-64.686 39.519,0 71.671,32.151 71.671,71.671 0,43.709 -35.56,79.269 -79.269,79.269 H 0 v 30 H 402.731 C 462.982,277.728 512,228.711 512,168.46 512,112.398 466.391,66.788 410.329,66.788 Z"
   inkscape:connector-curvature="0" />
	</g>
</g><g
     style="fill:#dddddd;fill-opacity:1;stroke:#dddddd;stroke-width:18.79999924;stroke-miterlimit:4;stroke-dasharray:none;stroke-opacity:1"
     id="g18">
	<g
   style="fill:#dddddd;fill-opacity:1;stroke:#dddddd;stroke-width:18.79999924;stroke-miterlimit:4;stroke-dasharray:none;stroke-opacity:1"
   id="g16">
		<path
   style="fill:#dddddd;fill-opacity:1;stroke:#dddddd;stroke-width:18.79999924;stroke-miterlimit:4;stroke-dasharray:none;stroke-opacity:1"
   id="path14"
   d="m 235.895,102.436 c -29.342,0 -53.214,23.872 -53.214,53.214 h 30 c 0,-12.8 10.414,-23.214 23.214,-23.214 14.648,0 26.564,11.916 26.564,26.564 0,16.657 -13.55,30.208 -30.207,30.208 H 82.659 v 30 h 149.593 c 33.199,0 60.207,-27.009 60.207,-60.208 0,-31.189 -25.374,-56.564 -56.564,-56.564 z"
   inkscape:connector-curvature="0" />
	</g>
</g><g
     id="g20">
</g><g
     id="g22">
</g><g
     id="g24">
</g><g
     id="g26">
</g><g
     id="g28">
</g><g
     id="g30">
</g><g
     id="g32">
</g><g
     id="g34">
</g><g
     id="g36">
</g><g
     id="g38">
</g><g
     id="g40">
</g><g
     id="g42">
</g><g
     id="g44">
</g><g
     id="g46">
</g><g
     id="g48">
</g></g>
</svg>